#N canvas 748 128 1920 966 12;
#X obj 1998 192 comport;
#X msg 2058 132 devices;
#X obj 2019 415 pdchoco/slip_parse;
#X obj 2241 1376 netsend -u -b;
#X msg 2282 1346 disconnect;
#X msg 2127 134 close;
#X obj 588 704 oscparse;
#X obj 2076 243 tgl 19 0 empty empty DEBOGAGE 22 11 0 12 #fcfcfc #000000 #000000 0 1;
#X obj 2039 267 spigot;
#X obj 2039 304 print COM;
#X obj 1972 211 bng 19 250 50 0 empty empty empty 0 -10 0 12 #fcfcfc #000000 #000000;
#X text 1993 10 RECEVOIR LES DONNEES DU LOGICIEL;
#X text 2056 192 ENVOYER ET RECEVOIR LES DONNEES AU MICROCONTRÔLEUR;
#X obj 1970 57 bng 19 250 50 0 empty empty empty 0 -10 0 12 #fcfcfc #000000 #000000;
#X obj 1998 38 netreceive -u -b 8000;
#X obj 1999 102 pdchoco/slip_pack;
#X text 1964 37 UDP;
#X text 1960 103 SLIP;
#X text 1957 342 SLIP;
#X text 1963 416 UDP;
#X text 1963 192 COM;
#X obj 588 733 list trim;
#X text 474 810 Ambiance Route;
#X text 2876 731 Sons spotannés Route;
#X obj 2503 191 comport;
#X msg 2563 131 devices;
#X msg 2632 133 close;
#X obj 2581 242 tgl 19 0 empty empty DEBOGAGE 22 11 0 12 #fcfcfc #000000 #000000 0 1;
#X obj 2544 266 spigot;
#X obj 2544 303 print COM;
#X obj 2477 210 bng 19 250 50 0 empty empty empty 0 -10 0 12 #fcfcfc #000000 #000000;
#X text 2498 9 RECEVOIR LES DONNEES DU LOGICIEL;
#X text 2561 191 ENVOYER ET RECEVOIR LES DONNEES AU MICROCONTRÔLEUR;
#X obj 2475 56 bng 19 250 50 0 empty empty empty 0 -10 0 12 #fcfcfc #000000 #000000;
#X obj 2504 101 pdchoco/slip_pack;
#X text 2469 36 UDP;
#X text 2465 102 SLIP;
#X text 2468 191 COM;
#X obj 2503 37 netreceive -u -b 8001;
#X obj 2508 401 pdchoco/slip_parse;
#X obj 587 810 route angleChorus angleVolume angleReverb anglePan angleEffectA angleEffectB tufVolume, f 99;
#X obj 2767 780 route btnSnare btnPow btnHat btnKick tufPitch;
#X obj 2767 723 oscparse;
#X obj 2767 749 list trim;
#X obj 989 1349 netsend -u -b;
#X msg 1090 1329 disconnect;
#X msg 2279 1306 connect 127.0.0.1 8003;
#X msg 1089 1307 connect 127.0.0.1 8002;
#X obj 2931 810 change;
#X obj 3093 809 change;
#X obj 3094 871 tgl 19 0 empty empty empty 0 -10 0 12 #fcfcfc #000000 #000000 0 1;
#X obj 3257 808 change;
#X obj 3258 870 tgl 19 0 empty empty empty 0 -10 0 12 #fcfcfc #000000 #000000 0 1;
#X obj 892 918 nbx 5 17 -1e+37 1e+37 0 0 empty empty empty 0 -10 0 12 #fcfcfc #000000 #000000 0 256;
#X obj 892 944 * 127;
#X obj 892 971 / 4095;
#X obj 892 1001 pdchoco/stream_smooth 0.1 0.1;
#X obj 901 1031 nbx 5 17 -1e+37 1e+37 0 0 empty empty empty 0 -10 0 12 #fcfcfc #000000 #000000 0 256;
#X obj 1473 814 nbx 5 17 0 127 0 0 empty empty empty 0 -10 0 12 #fcfcfc #000000 #000000 0 256;
#X obj 1477 892 nbx 5 17 -1e+37 127 0 0 empty empty empty 0 -10 0 12 #fcfcfc #000000 #000000 0 256;
#X obj 1474 1069 nbx 5 17 -1e+37 1e+37 0 0 empty empty empty 0 -10 0 12 #fcfcfc #000000 #000000 0 256;
#X obj 1475 930 moses 127;
#X obj 1549 970 nbx 5 17 0 127 0 0 empty empty empty 0 -10 0 12 #fcfcfc #000000 #000000 0 256;
#X obj 1472 1036 nbx 5 17 0 127 0 0 empty empty empty 0 -10 0 12 #fcfcfc #000000 #000000 0 256;
#X msg 1548 1037 0;
#X msg 1550 1002 0;
#X obj 1476 861 / 3;
#X obj 1475 1102 pdchoco/stream_smooth 0.05 0.3;
#X obj 3455 811 nbx 5 17 0 127 0 0 empty empty empty 0 -10 0 12 #fcfcfc #000000 #000000 0 256;
#X obj 3459 889 nbx 5 17 -1e+37 127 0 0 empty empty empty 0 -10 0 12 #fcfcfc #000000 #000000 0 256;
#X obj 3456 1066 nbx 5 17 -1e+37 1e+37 0 0 empty empty empty 0 -10 0 12 #fcfcfc #000000 #000000 0 256;
#X obj 3457 927 moses 127;
#X obj 3531 967 nbx 5 17 0 127 0 0 empty empty empty 0 -10 0 12 #fcfcfc #000000 #000000 0 256;
#X obj 3454 1033 nbx 5 17 0 127 0 0 empty empty empty 0 -10 0 12 #fcfcfc #000000 #000000 0 256;
#X msg 3530 1034 0;
#X msg 3532 999 0;
#X obj 3458 858 / 3;
#X obj 3457 1099 pdchoco/stream_smooth 0.05 0.3;
#X obj 3522 1141 oscformat -f i vkb_midi 0 cc 31;
#X msg 2688 132 close \, baud 115200 \, open 3;
#X msg 2183 133 close \, baud 115200 \, open 4;
#X obj 2766 970 oscformat -f i vkb_midi 1 note 32;
#X obj 3057 908 oscformat -f i vkb_midi 2 note 32;
#X obj 3189 957 oscformat -f i vkb_midi 3 note 32;
#X obj 113 918 nbx 5 17 -1e+37 1e+37 0 0 empty empty empty 0 -10 0 12 #fcfcfc #000000 #000000 0 256;
#X obj 113 944 * 127;
#X obj 113 971 / 4095;
#X obj 113 1001 pdchoco/stream_smooth 0.1 0.1;
#X obj 122 1031 nbx 5 17 -1e+37 1e+37 0 0 empty empty empty 0 -10 0 12 #fcfcfc #000000 #000000 0 256;
#X obj 435 914 nbx 5 17 -1e+37 1e+37 0 0 empty empty empty 0 -10 0 12 #fcfcfc #000000 #000000 0 256;
#X obj 435 940 * 127;
#X obj 435 967 / 4095;
#X obj 435 997 pdchoco/stream_smooth 0.1 0.1;
#X obj 444 1027 nbx 5 17 -1e+37 1e+37 0 0 empty empty empty 0 -10 0 12 #fcfcfc #000000 #000000 0 256;
#X obj 529 1047 oscformat -f i vkb_midi 9 cc 21;
#X obj 207 1051 oscformat -f i vkb_midi 9 cc 20;
#X obj 986 1051 oscformat -f i vkb_midi 9 cc 22;
#X obj 1540 1144 oscformat -f i vkb_midi 9 cc 30;
#X obj 2711 833 select 0;
#X obj 2423 943 oscformat -f i vkb_midi 0 note 60;
#X obj 2736 808 change;
#X obj 2019 449 bng 19 250 50 0 empty empty empty 0 -10 0 12 #fcfcfc #000000 #000000;
#X obj 2656 877 bng 19 250 50 0 empty empty empty 0 -10 0 12 #fcfcfc #000000 #000000;
#X obj 2613 901 1;
#X obj 2555 829 sel 0 1;
#X msg 2543 891 127;
#X obj 2867 832 select 0;
#X obj 2812 876 bng 19 250 50 0 empty empty empty 0 -10 0 12 #fcfcfc #000000 #000000;
#X obj 2769 900 1;
#X msg 2699 890 127;
#X connect 0 0 2 0;
#X connect 0 0 8 0;
#X connect 0 0 10 0;
#X connect 1 0 0 0;
#X connect 2 0 3 0;
#X connect 2 0 6 0;
#X connect 4 0 3 0;
#X connect 5 0 0 0;
#X connect 6 0 21 0;
#X connect 7 0 8 1;
#X connect 8 0 9 0;
#X connect 14 0 13 0;
#X connect 14 0 15 0;
#X connect 15 0 0 0;
#X connect 21 0 40 0;
#X connect 24 0 28 0;
#X connect 24 0 30 0;
#X connect 24 0 39 0;
#X connect 25 0 24 0;
#X connect 26 0 24 0;
#X connect 27 0 28 1;
#X connect 28 0 29 0;
#X connect 34 0 24 0;
#X connect 38 0 33 0;
#X connect 38 0 34 0;
#X connect 39 0 3 0;
#X connect 39 0 42 0;
#X connect 40 0 84 0;
#X connect 40 1 89 0;
#X connect 40 2 53 0;
#X connect 40 6 58 0;
#X connect 41 0 100 0;
#X connect 41 1 48 0;
#X connect 41 2 49 0;
#X connect 41 3 51 0;
#X connect 41 4 68 0;
#X connect 42 0 43 0;
#X connect 43 0 41 0;
#X connect 45 0 44 0;
#X connect 46 0 3 0;
#X connect 47 0 44 0;
#X connect 48 0 106 0;
#X connect 49 0 50 0;
#X connect 50 0 82 0;
#X connect 51 0 52 0;
#X connect 52 0 83 0;
#X connect 53 0 54 0;
#X connect 54 0 55 0;
#X connect 55 0 56 0;
#X connect 56 0 57 0;
#X connect 57 0 96 0;
#X connect 58 0 66 0;
#X connect 59 0 61 0;
#X connect 60 0 67 0;
#X connect 61 0 63 0;
#X connect 61 1 62 0;
#X connect 62 0 65 0;
#X connect 62 0 64 0;
#X connect 63 0 67 0;
#X connect 64 0 60 0;
#X connect 65 0 63 0;
#X connect 66 0 59 0;
#X connect 67 0 97 0;
#X connect 68 0 76 0;
#X connect 69 0 71 0;
#X connect 70 0 77 0;
#X connect 71 0 73 0;
#X connect 71 1 72 0;
#X connect 72 0 75 0;
#X connect 72 0 74 0;
#X connect 73 0 77 0;
#X connect 74 0 70 0;
#X connect 75 0 73 0;
#X connect 76 0 69 0;
#X connect 77 0 78 0;
#X connect 78 0 44 0;
#X connect 79 0 24 0;
#X connect 80 0 0 0;
#X connect 81 0 44 0;
#X connect 82 0 44 0;
#X connect 83 0 44 0;
#X connect 84 0 85 0;
#X connect 85 0 86 0;
#X connect 86 0 87 0;
#X connect 87 0 88 0;
#X connect 88 0 95 0;
#X connect 89 0 90 0;
#X connect 90 0 91 0;
#X connect 91 0 92 0;
#X connect 92 0 93 0;
#X connect 93 0 94 0;
#X connect 94 0 44 0;
#X connect 95 0 44 0;
#X connect 96 0 44 0;
#X connect 97 0 44 0;
#X connect 98 0 102 0;
#X connect 98 0 105 0;
#X connect 99 0 44 0;
#X connect 100 0 98 0;
#X connect 102 0 103 0;
#X connect 105 0 99 0;
#X connect 106 0 107 0;
#X connect 106 0 109 0;
#X connect 107 0 108 0;
#X connect 109 0 81 0;
