#N canvas 38 0 2560 989 12;
#X obj 1998 192 comport;
#X msg 2058 132 devices;
#X obj 2019 415 pdchoco/slip_parse;
#X obj 2418 1387 netsend -u -b;
#X msg 2459 1357 disconnect;
#X msg 2127 134 close;
#X obj 588 704 oscparse;
#X obj 2076 243 tgl 19 0 empty empty DEBOGAGE 22 11 0 12 #fcfcfc #000000 #000000 0 1;
#X obj 2039 267 spigot;
#X obj 2039 304 print COM;
#X obj 1972 211 bng 19 250 50 0 empty empty empty 0 -10 0 12 #fcfcfc #000000 #000000;
#X text 1993 10 RECEVOIR LES DONNEES DU LOGICIEL;
#X text 2056 192 ENVOYER ET RECEVOIR LES DONNEES AU MICROCONTRÔLEUR;
#X obj 1970 57 bng 19 250 50 0 empty empty empty 0 -10 0 12 #fcfcfc #000000 #000000;
#X obj 1998 38 netreceive -u -b 8000;
#X obj 1999 102 pdchoco/slip_pack;
#X text 1964 37 UDP;
#X text 1960 103 SLIP;
#X text 1957 342 SLIP;
#X text 1963 416 UDP;
#X text 1963 192 COM;
#X obj 588 733 list trim;
#X text 474 810 Ambiance Route;
#X text 2876 731 Sons spotannés Route;
#X obj 2503 191 comport;
#X msg 2563 131 devices;
#X msg 2632 133 close;
#X obj 2581 242 tgl 19 0 empty empty DEBOGAGE 22 11 0 12 #fcfcfc #000000 #000000 0 1;
#X obj 2544 266 spigot;
#X obj 2544 303 print COM;
#X obj 2477 210 bng 19 250 50 0 empty empty empty 0 -10 0 12 #fcfcfc #000000 #000000;
#X text 2498 9 RECEVOIR LES DONNEES DU LOGICIEL;
#X text 2561 191 ENVOYER ET RECEVOIR LES DONNEES AU MICROCONTRÔLEUR;
#X obj 2475 56 bng 19 250 50 0 empty empty empty 0 -10 0 12 #fcfcfc #000000 #000000;
#X obj 2504 101 pdchoco/slip_pack;
#X text 2469 36 UDP;
#X text 2465 102 SLIP;
#X text 2468 191 COM;
#X obj 2503 37 netreceive -u -b 8001;
#X msg 2183 133 close \, baud 115200 \, open 4;
#X obj 2508 401 pdchoco/slip_parse;
#X obj 587 810 route angleChorus angleVolume angleReverb anglePan angleEffectA angleEffectB tufVolume, f 99;
#X obj 2767 780 route btnSnare btnPow btnHat btnKick tufPitch;
#X obj 2767 723 oscparse;
#X obj 2767 749 list trim;
#X obj 2631 1371 netsend -u -b;
#X msg 2732 1351 disconnect;
#X msg 2456 1317 connect 127.0.0.1 8003;
#X msg 2731 1329 connect 127.0.0.1 8002;
#X obj 2767 811 change;
#X obj 2767 841 select 0 1;
#X obj 2768 873 tgl 19 0 empty empty empty 0 -10 0 12 #fcfcfc #000000 #000000 0 1;
#X obj 2765 906 oscformat track 2 mute;
#X obj 2931 810 change;
#X obj 2931 840 select 0 1;
#X obj 2932 872 tgl 19 0 empty empty empty 0 -10 0 12 #fcfcfc #000000 #000000 0 1;
#X obj 3093 809 change;
#X obj 3093 839 select 0 1;
#X obj 3094 871 tgl 19 0 empty empty empty 0 -10 0 12 #fcfcfc #000000 #000000 0 1;
#X obj 3257 808 change;
#X obj 3257 838 select 0 1;
#X obj 3258 870 tgl 19 0 empty empty empty 0 -10 0 12 #fcfcfc #000000 #000000 0 1;
#X obj 2929 905 oscformat track 3 mute;
#X obj 3091 904 oscformat track 4 mute;
#X obj 3255 903 oscformat track 5 mute;
#X obj 986 1051 oscformat -f i vkb_midi 0 cc 24;
#X obj 892 918 nbx 5 17 -1e+37 1e+37 0 0 empty empty empty 0 -10 0 12 #fcfcfc #000000 #000000 0 256;
#X obj 892 944 * 127;
#X obj 892 971 / 4095;
#X obj 892 1001 pdchoco/stream_smooth 0.1 0.1;
#X obj 901 1031 nbx 5 17 -1e+37 1e+37 0 0 empty empty empty 0 -10 0 12 #fcfcfc #000000 #000000 0 256;
#X msg 2688 132 close \, baud 115200 \, open 5;
#X obj 1473 814 nbx 5 17 0 127 0 0 empty empty empty 0 -10 0 12 #fcfcfc #000000 #000000 0 256;
#X obj 1477 892 nbx 5 17 -1e+37 127 0 0 empty empty empty 0 -10 0 12 #fcfcfc #000000 #000000 0 256;
#X obj 1474 1069 nbx 5 17 -1e+37 1e+37 0 0 empty empty empty 0 -10 0 12 #fcfcfc #000000 #000000 0 256;
#X obj 1540 1144 oscformat -f i vkb_midi 0 cc 30;
#X obj 1475 930 moses 127;
#X obj 1549 970 nbx 5 17 0 127 0 0 empty empty empty 0 -10 0 12 #fcfcfc #000000 #000000 0 256;
#X obj 1472 1036 nbx 5 17 0 127 0 0 empty empty empty 0 -10 0 12 #fcfcfc #000000 #000000 0 256;
#X msg 1548 1037 0;
#X msg 1550 1002 0;
#X obj 1476 861 / 3;
#X obj 1475 1102 pdchoco/stream_smooth 0.05 0.3;
#X obj 3455 811 nbx 5 17 0 127 0 0 empty empty empty 0 -10 0 12 #fcfcfc #000000 #000000 0 256;
#X obj 3459 889 nbx 5 17 -1e+37 127 0 0 empty empty empty 0 -10 0 12 #fcfcfc #000000 #000000 0 256;
#X obj 3456 1066 nbx 5 17 -1e+37 1e+37 0 0 empty empty empty 0 -10 0 12 #fcfcfc #000000 #000000 0 256;
#X obj 3457 927 moses 127;
#X obj 3531 967 nbx 5 17 0 127 0 0 empty empty empty 0 -10 0 12 #fcfcfc #000000 #000000 0 256;
#X obj 3454 1033 nbx 5 17 0 127 0 0 empty empty empty 0 -10 0 12 #fcfcfc #000000 #000000 0 256;
#X msg 3530 1034 0;
#X msg 3532 999 0;
#X obj 3458 858 / 3;
#X obj 3457 1099 pdchoco/stream_smooth 0.05 0.3;
#X obj 3522 1141 oscformat -f i vkb_midi 0 cc 31;
#X connect 0 0 2 0;
#X connect 0 0 8 0;
#X connect 0 0 10 0;
#X connect 1 0 0 0;
#X connect 2 0 3 0;
#X connect 2 0 6 0;
#X connect 4 0 3 0;
#X connect 5 0 0 0;
#X connect 6 0 21 0;
#X connect 7 0 8 1;
#X connect 8 0 9 0;
#X connect 14 0 13 0;
#X connect 14 0 15 0;
#X connect 15 0 0 0;
#X connect 21 0 41 0;
#X connect 24 0 28 0;
#X connect 24 0 30 0;
#X connect 24 0 40 0;
#X connect 25 0 24 0;
#X connect 26 0 24 0;
#X connect 27 0 28 1;
#X connect 28 0 29 0;
#X connect 34 0 24 0;
#X connect 38 0 33 0;
#X connect 38 0 34 0;
#X connect 39 0 0 0;
#X connect 40 0 3 0;
#X connect 40 0 43 0;
#X connect 41 2 66 0;
#X connect 41 6 72 0;
#X connect 42 0 49 0;
#X connect 42 1 53 0;
#X connect 42 2 56 0;
#X connect 42 3 59 0;
#X connect 42 4 83 0;
#X connect 43 0 44 0;
#X connect 44 0 42 0;
#X connect 46 0 45 0;
#X connect 47 0 3 0;
#X connect 48 0 45 0;
#X connect 49 0 50 0;
#X connect 50 0 51 0;
#X connect 51 0 52 0;
#X connect 52 0 45 0;
#X connect 53 0 54 0;
#X connect 54 0 55 0;
#X connect 55 0 62 0;
#X connect 56 0 57 0;
#X connect 57 0 58 0;
#X connect 58 0 63 0;
#X connect 59 0 60 0;
#X connect 60 0 61 0;
#X connect 61 0 64 0;
#X connect 62 0 45 0;
#X connect 63 0 45 0;
#X connect 64 0 45 0;
#X connect 65 0 45 0;
#X connect 66 0 67 0;
#X connect 67 0 68 0;
#X connect 68 0 69 0;
#X connect 69 0 70 0;
#X connect 70 0 65 0;
#X connect 71 0 24 0;
#X connect 72 0 81 0;
#X connect 73 0 76 0;
#X connect 74 0 82 0;
#X connect 75 0 45 0;
#X connect 76 0 78 0;
#X connect 76 1 77 0;
#X connect 77 0 80 0;
#X connect 77 0 79 0;
#X connect 78 0 82 0;
#X connect 79 0 74 0;
#X connect 80 0 78 0;
#X connect 81 0 73 0;
#X connect 82 0 75 0;
#X connect 83 0 91 0;
#X connect 84 0 86 0;
#X connect 85 0 92 0;
#X connect 86 0 88 0;
#X connect 86 1 87 0;
#X connect 87 0 90 0;
#X connect 87 0 89 0;
#X connect 88 0 92 0;
#X connect 89 0 85 0;
#X connect 90 0 88 0;
#X connect 91 0 84 0;
#X connect 92 0 93 0;
#X connect 93 0 45 0;
