#N canvas 57 189 3712 1448 12;
#X obj 154 196 comport;
#X msg 214 136 devices;
#X obj 134 648 pdchoco/slip_parse;
#X obj 795 1316 netsend -u -b;
#X msg 205 1033 disconnect;
#X msg 283 138 close;
#X text 1128 727 ENVOYER LES DONNEES VERS LE LOGICIEL;
#X obj 1053 760 oscparse;
#X obj 1096 683 tgl 19 0 empty empty DEBOGAGE 22 11 0 12 #fcfcfc #000000 #000000 0 1;
#X obj 1053 719 spigot;
#X obj 977 789 print OSC;
#X obj 232 247 tgl 19 0 empty empty DEBOGAGE 22 11 0 12 #fcfcfc #000000 #000000 0 1;
#X obj 195 271 spigot;
#X obj 195 308 print COM;
#X obj 128 215 bng 19 250 50 0 empty empty empty 0 -10 0 12 #fcfcfc #000000 #000000;
#X text 149 14 RECEVOIR LES DONNEES DU LOGICIEL;
#X text 212 196 ENVOYER ET RECEVOIR LES DONNEES AU MICROCONTRÔLEUR;
#X obj 126 61 bng 19 250 50 0 empty empty empty 0 -10 0 12 #fcfcfc #000000 #000000;
#X obj 154 42 netreceive -u -b 8000;
#X obj 155 106 pdchoco/slip_pack;
#X text 120 41 UDP;
#X text 116 107 SLIP;
#X text 113 346 SLIP;
#X text 119 420 UDP;
#X text 119 196 COM;
#X obj 1053 789 list trim;
#X text 939 866 Ambiance Route;
#X text 1606 837 Sons spotannés Route;
#X obj 1894 862 route tufPitch tufVolume;
#X text 1888 836 Teremin Route;
#X obj 2510 931 oscformat -f i vkb_midi 0 note 60;
#X obj 2763 931 oscformat -f i vkb_midi 0 note 60;
#X obj 3016 931 oscformat -f i vkb_midi 0 note 60;
#X obj 3269 931 oscformat -f i vkb_midi 0 note 60;
#X obj 1339 939 oscformat -f i vkb_midi 0 cc 14;
#X obj 1570 939 oscformat -f i vkb_midi 0 cc 14;
#X obj 1804 940 oscformat -f i vkb_midi 0 cc 14;
#X obj 1104 940 oscformat -f i vkb_midi 0 cc 14;
#X obj 2036 939 oscformat -f i vkb_midi 0 cc 14;
#X obj 3564 928 oscformat -f i vkb_midi 0 cc 14;
#X obj 3796 927 oscformat -f i vkb_midi 0 cc 14;
#X obj 1601 866 route btnSnare btnPow btnHat btnKick;
#X obj 1052 866 route angleChorus angleVolume angleReverb anglePan angleEffectA angleEffectB, f 76;
#X obj 871 937 oscformat -f i vkb_midi 0 cc 60;
#X obj 659 195 comport;
#X msg 719 135 devices;
#X msg 788 137 close;
#X obj 737 246 tgl 19 0 empty empty DEBOGAGE 22 11 0 12 #fcfcfc #000000 #000000 0 1;
#X obj 700 270 spigot;
#X obj 700 307 print COM;
#X obj 633 214 bng 19 250 50 0 empty empty empty 0 -10 0 12 #fcfcfc #000000 #000000;
#X text 654 13 RECEVOIR LES DONNEES DU LOGICIEL;
#X text 717 195 ENVOYER ET RECEVOIR LES DONNEES AU MICROCONTRÔLEUR;
#X obj 631 60 bng 19 250 50 0 empty empty empty 0 -10 0 12 #fcfcfc #000000 #000000;
#X obj 660 105 pdchoco/slip_pack;
#X text 625 40 UDP;
#X text 621 106 SLIP;
#X text 624 195 COM;
#X obj 659 41 netreceive -u -b 8001;
#X msg 844 136 close \, baud 115200 \, open 8;
#X msg 339 137 close \, baud 115200 \, open 4;
#X msg 202 993 disconnect \, connect 127.0.0.1 8002;
#X obj 316 648 pdchoco/slip_parse;
#X connect 0 0 2 0;
#X connect 0 0 12 0;
#X connect 0 0 14 0;
#X connect 1 0 0 0;
#X connect 2 0 3 0;
#X connect 4 0 3 0;
#X connect 5 0 0 0;
#X connect 7 0 10 0;
#X connect 7 0 25 0;
#X connect 8 0 9 1;
#X connect 9 0 7 0;
#X connect 11 0 12 1;
#X connect 12 0 13 0;
#X connect 18 0 17 0;
#X connect 18 0 19 0;
#X connect 19 0 0 0;
#X connect 25 0 28 0;
#X connect 25 0 41 0;
#X connect 25 0 42 0;
#X connect 28 0 39 0;
#X connect 28 1 40 0;
#X connect 30 0 3 0;
#X connect 31 0 3 0;
#X connect 32 0 3 0;
#X connect 33 0 3 0;
#X connect 34 0 3 0;
#X connect 35 0 3 0;
#X connect 36 0 3 0;
#X connect 37 0 3 0;
#X connect 38 0 3 0;
#X connect 39 0 3 0;
#X connect 40 0 3 0;
#X connect 41 0 30 0;
#X connect 41 1 31 0;
#X connect 41 2 32 0;
#X connect 41 3 33 0;
#X connect 42 0 43 0;
#X connect 42 1 37 0;
#X connect 42 2 34 0;
#X connect 42 3 35 0;
#X connect 42 4 36 0;
#X connect 42 5 38 0;
#X connect 43 0 3 0;
#X connect 44 0 48 0;
#X connect 44 0 50 0;
#X connect 44 0 62 0;
#X connect 45 0 44 0;
#X connect 46 0 44 0;
#X connect 47 0 48 1;
#X connect 48 0 49 0;
#X connect 54 0 44 0;
#X connect 58 0 53 0;
#X connect 58 0 54 0;
#X connect 59 0 44 0;
#X connect 60 0 0 0;
#X connect 61 0 3 0;
#X connect 62 0 3 0;
